<svg width="52" height="52" viewBox="0 0 52 52" fill="none" xmlns="http://www.w3.org/2000/svg">
<rect width="52" height="52" rx="10" fill="#FEBA00"/>
<path d="M32.1123 17.0176H19.1123C18.8126 17.0258 18.519 17.1045 18.2554 17.2472C17.9917 17.3899 17.7653 17.5926 17.5945 17.839L14.3445 22.339C14.1031 22.68 13.9826 23.0919 14.002 23.5092C14.0214 23.9265 14.1797 24.3254 14.4516 24.6426L24.2016 35.8747C24.3685 36.0898 24.5824 36.2639 24.8269 36.3836C25.0714 36.5034 25.3401 36.5656 25.6123 36.5656C25.8846 36.5656 26.1532 36.5034 26.3977 36.3836C26.6422 36.2639 26.8561 36.0898 27.023 35.8747L36.773 24.6426C37.045 24.3254 37.2032 23.9265 37.2226 23.5092C37.242 23.0919 37.1215 22.68 36.8802 22.339L33.6302 17.839C33.4594 17.5926 33.233 17.3899 32.9693 17.2472C32.7056 17.1045 32.412 17.0258 32.1123 17.0176V17.0176Z" stroke="white" stroke-width="2" stroke-linecap="round" stroke-linejoin="round"/>
<path d="M24.6838 17L20.3267 23.75L25.6124 36.5179" stroke="white" stroke-width="2" stroke-linecap="round" stroke-linejoin="round"/>
<path d="M26.5944 17L30.9337 23.75L25.6123 36.5179" stroke="white" stroke-width="2" stroke-linecap="round" stroke-linejoin="round"/>
<path d="M14.041 23.75H37.1839" stroke="white" stroke-width="2" stroke-linecap="round" stroke-linejoin="round"/>
</svg>
