<svg width="52" height="52" viewBox="0 0 52 52" fill="none" xmlns="http://www.w3.org/2000/svg">
<rect width="52" height="52" rx="10" fill="#FEBA00"/>
<g clip-path="url(#clip0_412_970)">
<path d="M25.9999 15.7861C24.1523 15.7867 22.3394 16.2884 20.7544 17.2378C19.1694 18.1873 17.8716 19.5488 16.9992 21.1775C16.1268 22.8062 15.7125 24.641 15.8004 26.4865C15.8883 28.3321 16.4752 30.1192 17.4985 31.6576L15.7856 36.2147L21.5214 35.1776C22.9025 35.8525 24.4182 36.207 25.9554 36.2146C27.4926 36.2222 29.0117 35.8827 30.3994 35.2215C31.7872 34.5603 33.0078 33.5944 33.9703 32.3958C34.9328 31.1972 35.6123 29.7968 35.9583 28.299C36.3042 26.8012 36.3076 25.2446 35.9682 23.7453C35.6288 22.246 34.9554 20.8427 33.9981 19.6399C33.0409 18.437 31.8245 17.4658 30.4396 16.7986C29.0548 16.1313 27.5372 15.7852 25.9999 15.7861V15.7861Z" stroke="white" stroke-width="2" stroke-linecap="round" stroke-linejoin="round"/>
</g>
<defs>
<clipPath id="clip0_412_970">
<rect width="22" height="22" fill="white" transform="translate(15 15)"/>
</clipPath>
</defs>
</svg>
