<svg width="526" height="492" viewBox="0 0 526 492" fill="none" xmlns="http://www.w3.org/2000/svg">
<path d="M119.277 338.49V465.955C119.277 474.54 126.234 481.5 134.816 481.5H223.383M119.277 338.49L65.8281 369.578C58.436 373.878 48.9607 371.394 44.6254 364.021L29.478 338.26C25.0449 330.721 27.7004 321.008 35.352 316.775L114.12 273.203M119.277 338.49L145.633 324.5M195.414 298.074H223.383M195.414 298.074L145.633 324.5M195.414 298.074L223.383 282.291M223.383 298.074V372.688M223.383 298.074H293.305M223.383 481.5V406.886M223.383 481.5H293.305M293.305 298.074H381.872C390.453 298.074 397.41 305.034 397.41 313.619V465.955C397.41 474.54 390.453 481.5 381.872 481.5H293.305M293.305 298.074V481.5M114.12 273.203L145.633 324.5M114.12 273.203L192.803 229.678M114.12 273.203C114.12 273.203 66.5316 296.178 41.5868 282.291C22.9752 271.929 10.8989 258.755 10.5105 237.451C10.1116 215.567 20.9226 198.008 41.5868 190.817C77.3233 178.381 128.599 214.134 128.599 214.134M114.12 273.203C114.12 273.203 102.315 258.652 97.5241 248.332M192.803 229.678L272.468 185.61C279.768 181.572 288.952 184.02 293.275 191.156L308.303 215.962C312.849 223.467 310.289 233.247 302.649 237.558L223.383 282.291M192.803 229.678L223.383 282.291M192.803 229.678C192.803 229.678 231.151 203.253 238.921 178.381C245.51 157.29 242.504 137.965 223.383 123.975C206.24 111.433 186.142 111.433 169 123.975M192.803 229.678C192.803 229.678 186.962 215.504 181.429 207.916M133.261 211.025C133.261 211.025 150.353 193.926 164.337 197.035C170.569 198.42 177.666 202.756 181.429 207.916M133.261 211.025C133.261 211.025 134.814 164.391 151.908 141.074M133.261 211.025L128.599 214.134M181.429 207.916C184.948 191.222 178.634 184.599 187.645 167.5M128.599 214.134C128.599 214.134 104.074 219.692 97.5241 232.787C95.9691 235.896 95.8334 244.689 97.5241 248.332M97.5241 248.332C83.0905 244.689 81.9848 235.896 64.894 237.451M363.226 130.193C365.816 164.471 365.091 237.953 341.473 257.658M411.394 167.5C420.717 135.375 454.59 73.3 515.5 82.0049M291.046 50.7783L267.036 52.4533C261.521 52.8381 259.215 59.6946 263.376 63.3361L281.492 79.1893C283.246 80.7244 283.994 83.1123 283.43 85.3746L277.603 108.737C276.264 114.103 282.07 118.415 286.818 115.582L307.487 103.245C309.488 102.05 311.99 102.076 313.966 103.312L334.375 116.075C339.063 119.007 344.956 114.816 343.73 109.423L338.388 85.945C337.871 83.6715 338.669 81.2996 340.454 79.8012L358.895 64.3274C363.13 60.7731 360.967 53.8702 355.461 53.3711L331.491 51.198C329.17 50.9876 327.162 49.4957 326.289 47.3337L317.277 25.007C315.207 19.8785 307.976 19.8035 305.8 24.8878L296.327 47.0228C295.41 49.1662 293.371 50.616 291.046 50.7783ZM429.711 216.654L405.825 219.612C400.339 220.292 398.403 227.262 402.753 230.676L421.691 245.536C423.525 246.975 424.4 249.319 423.958 251.608L419.389 275.249C418.34 280.679 424.368 284.675 428.957 281.591L448.936 268.164C450.871 266.864 453.37 266.756 455.41 267.884L476.472 279.536C481.31 282.213 486.971 277.712 485.458 272.393L478.868 249.235C478.229 246.992 478.899 244.581 480.602 242.989L498.188 226.55C502.227 222.774 499.698 215.996 494.173 215.793L470.121 214.907C467.792 214.821 465.707 213.439 464.72 211.327L454.526 189.515C452.184 184.504 444.96 184.817 443.059 190.01L434.784 212.621C433.983 214.81 432.024 216.367 429.711 216.654ZM459.561 46.2525C459.561 65.998 443.561 82.005 423.824 82.005C404.086 82.005 388.086 65.998 388.086 46.2525C388.086 26.5069 404.086 10.5 423.824 10.5C443.561 10.5 459.561 26.5069 459.561 46.2525Z" stroke="#FEBA00" stroke-width="21" stroke-linecap="round" stroke-linejoin="round"/>
</svg>
