<svg width="24" height="24" viewBox="0 0 24 24" fill="none" xmlns="http://www.w3.org/2000/svg">
<rect width="24" height="24" rx="12" fill="#FEBA00"/>
<path d="M12.5571 16.3199C8.29318 16.3199 5.8611 13.0767 5.75977 7.67993H7.89563C7.96579 11.641 9.5404 13.3189 10.7876 13.6648V7.67993H12.7988V11.0961C14.0304 10.9491 15.3244 9.39236 15.7609 7.67993H17.7721C17.6076 8.56805 17.2797 9.40895 16.8089 10.15C16.3381 10.8911 15.7345 11.5165 15.036 11.987C15.8157 12.4168 16.5045 13.0253 17.0567 13.7722C17.609 14.5191 18.0122 15.3874 18.2398 16.3199H16.0259C15.8217 15.51 15.4065 14.785 14.8324 14.2357C14.2583 13.6865 13.5509 13.3374 12.7988 13.2324V16.3199H12.5571V16.3199Z" fill="white"/>
</svg>
