<svg width="11" height="16" viewBox="0 0 11 16" fill="none" xmlns="http://www.w3.org/2000/svg">
<path d="M10.5 5.69231C10.5 8.56538 5.5 15.5 5.5 15.5C5.5 15.5 0.5 8.56538 0.5 5.69231C0.5 4.31522 1.02678 2.99454 1.96447 2.02079C2.90215 1.04705 4.17392 0.5 5.5 0.5C6.82608 0.5 8.09785 1.04705 9.03553 2.02079C9.97322 2.99454 10.5 4.31522 10.5 5.69231V5.69231Z" stroke="white" stroke-linecap="round" stroke-linejoin="round"/>
<path d="M5.50016 7.42345C6.42064 7.42345 7.16683 6.64856 7.16683 5.69268C7.16683 4.73681 6.42064 3.96191 5.50016 3.96191C4.57969 3.96191 3.8335 4.73681 3.8335 5.69268C3.8335 6.64856 4.57969 7.42345 5.50016 7.42345Z" stroke="white" stroke-linecap="round" stroke-linejoin="round"/>
</svg>
