<svg width="145" height="20" viewBox="0 0 145 20" fill="none" xmlns="http://www.w3.org/2000/svg">
<path d="M49.8187 12.2821C49.8187 13.2031 49.6587 14.0417 49.3386 14.8017C49.0186 15.5617 48.5842 16.2131 48.0355 16.756C47.4869 17.2988 46.8429 17.7219 46.1037 18.0214C45.3646 18.3209 44.572 18.4706 43.7262 18.4706C42.8879 18.4706 42.0954 18.3171 41.3562 18.0101C40.617 17.7031 39.9693 17.2763 39.4168 16.7298C38.8643 16.1832 38.4261 15.5317 38.1061 14.7755C37.786 14.0192 37.626 13.1881 37.626 12.2859V1.85938H38.3728L40.6818 4.50624V7.33656C40.8456 7.13065 41.0438 6.9472 41.2762 6.78996C41.5086 6.62898 41.7639 6.49795 42.0344 6.39686C42.3049 6.29578 42.5869 6.21716 42.8765 6.161C43.1661 6.10485 43.448 6.07864 43.7223 6.07864C44.5682 6.07864 45.3607 6.23588 46.0999 6.54287C46.8391 6.85361 47.483 7.28414 48.0317 7.84197C48.5804 8.39605 49.0148 9.05122 49.3348 9.80747C49.6587 10.56 49.8187 11.3836 49.8187 12.2821ZM46.7515 12.2821C46.7515 11.8291 46.6715 11.4061 46.5114 11.0167C46.3514 10.6274 46.1342 10.2867 45.8599 10.0021C45.5856 9.71761 45.2655 9.49299 44.8959 9.33575C44.5301 9.17476 44.1377 9.0924 43.7223 9.0924C43.307 9.0924 42.9146 9.18225 42.545 9.36195C42.1792 9.54166 41.8553 9.77752 41.581 10.0733C41.3067 10.369 41.0895 10.7097 40.9333 11.0916C40.777 11.4735 40.7008 11.8703 40.7008 12.2784C40.7008 12.7314 40.7808 13.1507 40.9333 13.5363C41.0895 13.9256 41.3029 14.2588 41.581 14.5434C41.8553 14.8279 42.1792 15.0525 42.545 15.2173C42.9108 15.382 43.3032 15.4643 43.7223 15.4643C44.1377 15.4643 44.5301 15.382 44.8959 15.2173C45.2617 15.0525 45.5856 14.8279 45.8599 14.5434C46.1342 14.2588 46.3514 13.9219 46.5114 13.5363C46.6753 13.1544 46.7515 12.7351 46.7515 12.2821Z" fill="#FEBA00"/>
<path d="M63.0371 12.2823C63.0371 13.1583 62.877 13.9745 62.557 14.7307C62.2369 15.4869 61.8026 16.1384 61.2539 16.6887C60.7052 17.239 60.0613 17.6733 59.3221 17.9916C58.5829 18.3098 57.7904 18.467 56.9445 18.467C56.1063 18.467 55.3175 18.3098 54.5784 17.9916C53.8392 17.6733 53.1914 17.239 52.639 16.6887C52.0865 16.1384 51.6483 15.4832 51.3282 14.7307C51.0082 13.9745 50.8481 13.1583 50.8481 12.2823C50.8481 11.3912 51.0082 10.5676 51.3282 9.8076C51.6483 9.04761 52.0865 8.39245 52.639 7.84211C53.1914 7.29177 53.8392 6.85749 54.5784 6.54301C55.3175 6.22853 56.1063 6.07129 56.9445 6.07129C57.7904 6.07129 58.5829 6.22104 59.3221 6.5168C60.0613 6.81256 60.7052 7.23187 61.2539 7.77472C61.8026 8.31757 62.2369 8.97274 62.557 9.73647C62.877 10.5002 63.0371 11.35 63.0371 12.2823ZM59.9698 12.2823C59.9698 11.7993 59.8898 11.365 59.7298 10.9757C59.5698 10.5863 59.3526 10.2494 59.0782 9.96859C58.8039 9.6878 58.4838 9.47066 58.1143 9.32091C57.7485 9.17116 57.356 9.09628 56.9407 9.09628C56.5254 9.09628 56.1329 9.17116 55.7633 9.32091C55.3976 9.47066 55.0775 9.6878 54.8032 9.96859C54.5326 10.2494 54.3193 10.5863 54.163 10.9757C54.0068 11.365 53.9306 11.803 53.9306 12.2823C53.9306 12.7353 54.0106 13.1546 54.163 13.5402C54.3193 13.9295 54.5326 14.2627 54.8032 14.5473C55.0737 14.8318 55.3937 15.0564 55.7633 15.2211C56.1329 15.3859 56.5216 15.4682 56.9407 15.4682C57.356 15.4682 57.7485 15.3934 58.1143 15.2399C58.4838 15.0864 58.8039 14.873 59.0782 14.5922C59.3526 14.3151 59.5698 13.9782 59.7298 13.5851C59.8898 13.192 59.9698 12.7577 59.9698 12.2823Z" fill="#FEBA00"/>
<path d="M67.7613 18.2507H64.7207V6.52509H65.4561L66.4582 7.6632C66.9497 7.22518 67.5022 6.88823 68.1232 6.64863C68.7443 6.41277 69.392 6.29297 70.0665 6.29297C70.7942 6.29297 71.4801 6.42775 72.1278 6.70479C72.7755 6.97809 73.3394 7.35246 73.8233 7.83167C74.3072 8.31088 74.6883 8.86871 74.9664 9.5089C75.2446 10.1491 75.3855 10.8267 75.3855 11.5493V18.2507H72.345V11.5493C72.345 11.2423 72.284 10.954 72.1659 10.6807C72.0478 10.4074 71.8839 10.1678 71.6744 9.9619C71.4648 9.75973 71.2248 9.59875 70.9504 9.47894C70.6761 9.36289 70.3827 9.30299 70.0703 9.30299C69.7502 9.30299 69.4492 9.36289 69.1672 9.47894C68.8853 9.595 68.6414 9.75599 68.4319 9.9619C68.2223 10.1678 68.0585 10.4074 67.9403 10.6807C67.8222 10.954 67.7613 11.246 67.7613 11.5493V18.2507Z" fill="#FEBA00"/>
<path d="M89.0796 12.2823C89.0796 13.1583 88.9195 13.9745 88.5995 14.7307C88.2794 15.4869 87.845 16.1384 87.2964 16.6887C86.7477 17.239 86.1038 17.6733 85.3646 17.9916C84.6254 18.3098 83.8329 18.467 82.987 18.467C82.1487 18.467 81.36 18.3098 80.6208 17.9916C79.8817 17.6733 79.2339 17.239 78.6814 16.6887C78.1289 16.1384 77.6908 15.4832 77.3707 14.7307C77.0507 13.9745 76.8906 13.1583 76.8906 12.2823C76.8906 11.3912 77.0507 10.5676 77.3707 9.8076C77.6908 9.04761 78.1289 8.39245 78.6814 7.84211C79.2339 7.29177 79.8817 6.85749 80.6208 6.54301C81.36 6.22853 82.1487 6.07129 82.987 6.07129C83.8329 6.07129 84.6254 6.22104 85.3646 6.5168C86.1038 6.81256 86.7477 7.23187 87.2964 7.77472C87.845 8.31757 88.2794 8.97274 88.5995 9.73647C88.9195 10.5002 89.0796 11.35 89.0796 12.2823ZM86.0161 12.2823C86.0161 11.7993 85.9361 11.365 85.7761 10.9757C85.6161 10.5863 85.3989 10.2494 85.1245 9.96859C84.8502 9.6878 84.5301 9.47066 84.1605 9.32091C83.7948 9.17116 83.4023 9.09628 82.987 9.09628C82.5717 9.09628 82.1792 9.17116 81.8096 9.32091C81.4439 9.47066 81.1238 9.6878 80.8495 9.96859C80.5789 10.2494 80.3656 10.5863 80.2093 10.9757C80.0531 11.365 79.9769 11.803 79.9769 12.2823C79.9769 12.7353 80.0531 13.1546 80.2093 13.5402C80.3656 13.9295 80.5789 14.2627 80.8495 14.5473C81.12 14.8318 81.44 15.0564 81.8096 15.2211C82.1792 15.3859 82.5679 15.4682 82.987 15.4682C83.4023 15.4682 83.7948 15.3934 84.1605 15.2399C84.5301 15.0864 84.8502 14.873 85.1245 14.5922C85.3989 14.3151 85.6161 13.9782 85.7761 13.5851C85.9323 13.192 86.0161 12.7577 86.0161 12.2823Z" fill="#FEBA00"/>
<path d="M105.103 18.0769H104.368L103.187 16.467C102.897 16.7216 102.589 16.9612 102.269 17.1821C101.945 17.403 101.606 17.5977 101.251 17.7624C100.893 17.9271 100.527 18.0544 100.154 18.1518C99.7768 18.2454 99.3958 18.294 99.0109 18.294C98.1727 18.294 97.384 18.1405 96.6448 17.8298C95.9056 17.5191 95.2578 17.0885 94.7054 16.5382C94.1529 15.9878 93.7147 15.3327 93.3946 14.5764C93.0746 13.8202 92.9146 13.0003 92.9146 12.1055C92.9146 11.222 93.0746 10.4021 93.3946 9.6421C93.7147 8.88211 94.1529 8.22695 94.7054 7.67286C95.2578 7.11878 95.9056 6.6845 96.6448 6.37002C97.384 6.05554 98.1727 5.8983 99.0109 5.8983C99.2776 5.8983 99.5558 5.92077 99.8416 5.96569C100.127 6.01062 100.405 6.08175 100.676 6.17909C100.947 6.27642 101.202 6.40746 101.438 6.56844C101.674 6.72943 101.876 6.92785 102.04 7.15996V1.68652H102.775L105.103 4.31467V18.0769ZM102.04 12.1093C102.04 11.7012 101.96 11.3043 101.8 10.9225C101.64 10.5406 101.423 10.1999 101.148 9.90417C100.874 9.60841 100.554 9.37255 100.184 9.19285C99.8187 9.01314 99.4262 8.92329 99.0109 8.92329C98.5956 8.92329 98.2032 8.99443 97.8336 9.14043C97.4678 9.28644 97.1477 9.49609 96.8734 9.76939C96.6029 10.0427 96.3895 10.3759 96.2333 10.7727C96.077 11.1658 96.0008 11.6113 96.0008 12.1093C96.0008 12.5398 96.077 12.9479 96.2333 13.3372C96.3895 13.7228 96.6029 14.0635 96.8734 14.3555C97.1439 14.6476 97.464 14.8759 97.8336 15.0444C98.2032 15.2129 98.5918 15.2952 99.0109 15.2952C99.4262 15.2952 99.8187 15.2054 100.184 15.0257C100.554 14.846 100.874 14.6101 101.148 14.3144C101.423 14.0186 101.64 13.6779 101.8 13.2961C101.96 12.9142 102.04 12.5173 102.04 12.1093Z" fill="#FEBA00"/>
<path d="M118.957 12.1094C118.957 12.9855 118.797 13.8016 118.477 14.5579C118.157 15.3141 117.723 15.9655 117.174 16.5196C116.626 17.0699 115.982 17.5042 115.243 17.8224C114.503 18.1407 113.711 18.2979 112.865 18.2979C112.027 18.2979 111.238 18.1407 110.499 17.8224C109.76 17.5042 109.112 17.0699 108.559 16.5196C108.007 15.9693 107.569 15.3141 107.249 14.5579C106.929 13.8016 106.769 12.9855 106.769 12.1094C106.769 11.2184 106.929 10.3947 107.249 9.63475C107.569 8.87476 108.007 8.21959 108.559 7.66925C109.112 7.11892 109.76 6.68464 110.499 6.37016C111.238 6.05568 112.027 5.89844 112.865 5.89844C113.711 5.89844 114.503 6.04819 115.243 6.34021C115.982 6.63597 116.626 7.05528 117.174 7.59813C117.723 8.14098 118.157 8.79614 118.477 9.55987C118.797 10.3236 118.957 11.1735 118.957 12.1094ZM115.89 12.1094C115.89 11.6265 115.81 11.1922 115.65 10.8028C115.49 10.4135 115.273 10.0765 114.999 9.79574C114.724 9.51495 114.404 9.30155 114.035 9.1518C113.669 9.00205 113.276 8.92717 112.861 8.92717C112.446 8.92717 112.053 9.00205 111.684 9.1518C111.318 9.30155 110.998 9.51869 110.724 9.79574C110.453 10.0765 110.24 10.4135 110.083 10.8028C109.927 11.1922 109.851 11.6302 109.851 12.1094C109.851 12.5624 109.927 12.9817 110.083 13.3711C110.24 13.7567 110.453 14.0936 110.724 14.3782C110.994 14.6627 111.314 14.8873 111.684 15.052C112.053 15.2168 112.442 15.2991 112.861 15.2991C113.276 15.2991 113.669 15.2242 114.035 15.0708C114.404 14.9173 114.724 14.7001 114.999 14.4231C115.273 14.146 115.49 13.8091 115.65 13.416C115.81 13.0191 115.89 12.5849 115.89 12.1094Z" fill="#FEBA00"/>
<path d="M123.682 18.077H120.641V6.35142H121.376L122.379 7.48953C122.87 7.05151 123.423 6.71457 124.044 6.47871C124.665 6.24285 125.312 6.12305 125.987 6.12305C126.715 6.12305 127.4 6.26156 128.048 6.53486C128.696 6.80816 129.26 7.18629 129.744 7.66175C130.228 8.14096 130.609 8.69878 130.887 9.33897C131.165 9.97916 131.306 10.6568 131.306 11.3793V18.0807H128.265V11.3793C128.265 11.0723 128.204 10.7841 128.086 10.5108C127.968 10.2375 127.804 9.99788 127.595 9.79572C127.385 9.58981 127.145 9.42883 126.871 9.31277C126.597 9.19671 126.303 9.13681 125.991 9.13681C125.671 9.13681 125.37 9.19671 125.088 9.31277C124.806 9.42883 124.562 9.58981 124.352 9.79572C124.143 10.0016 123.979 10.2375 123.861 10.5108C123.743 10.7841 123.682 11.0761 123.682 11.3793V18.077Z" fill="#FEBA00"/>
<path d="M145 12.1094C145 12.9855 144.84 13.8016 144.52 14.5579C144.2 15.3141 143.765 15.9655 143.217 16.5196C142.668 17.0699 142.024 17.5042 141.285 17.8224C140.546 18.1407 139.753 18.2979 138.907 18.2979C138.069 18.2979 137.28 18.1407 136.541 17.8224C135.802 17.5042 135.154 17.0699 134.602 16.5196C134.049 15.9693 133.611 15.3141 133.291 14.5579C132.971 13.8016 132.811 12.9855 132.811 12.1094C132.811 11.2184 132.971 10.3947 133.291 9.63475C133.611 8.87476 134.049 8.21959 134.602 7.66925C135.154 7.11892 135.802 6.68464 136.541 6.37016C137.28 6.05568 138.069 5.89844 138.907 5.89844C139.753 5.89844 140.546 6.04819 141.285 6.34021C142.024 6.63597 142.668 7.05528 143.217 7.59813C143.765 8.14098 144.2 8.79614 144.52 9.55987C144.84 10.3236 145 11.1735 145 12.1094ZM141.937 12.1094C141.937 11.6265 141.857 11.1922 141.696 10.8028C141.536 10.4135 141.319 10.0765 141.045 9.79574C140.771 9.51495 140.451 9.30155 140.081 9.1518C139.715 9.00205 139.323 8.92717 138.907 8.92717C138.492 8.92717 138.1 9.00205 137.73 9.1518C137.364 9.30155 137.044 9.51869 136.77 9.79574C136.499 10.0765 136.286 10.4135 136.13 10.8028C135.974 11.1922 135.897 11.6302 135.897 12.1094C135.897 12.5624 135.977 12.9817 136.13 13.3711C136.286 13.7567 136.499 14.0936 136.77 14.3782C137.04 14.6627 137.36 14.8873 137.73 15.052C138.1 15.2168 138.488 15.2991 138.907 15.2991C139.323 15.2991 139.715 15.2242 140.081 15.0708C140.451 14.9173 140.771 14.7001 141.045 14.4231C141.319 14.146 141.536 13.8091 141.696 13.416C141.857 13.0191 141.937 12.5849 141.937 12.1094Z" fill="#FEBA00"/>
<path d="M29.9924 11.7112L28.6169 10.2661C28.2854 14.0361 25.0619 17.0012 21.1412 17.0012C17.5253 17.0012 14.4961 14.4741 13.7913 11.1234H18.0054C20.1277 11.1234 21.8842 10.2549 22.9511 8.675C23.9912 7.14004 24.197 5.16331 23.4959 3.52353C22.8863 2.10463 21.7051 0.962767 20.2458 0.397453C18.8093 -0.160374 17.2471 -0.130424 15.8488 0.48356C13.9932 1.29971 12.7663 2.81969 11.9547 4.38086C11.1431 2.81969 9.91625 1.29971 8.05686 0.48356C6.6585 -0.130424 5.10012 -0.160374 3.65985 0.397453C2.20053 0.962767 1.01555 2.10088 0.409722 3.52353C-0.29136 5.16706 -0.0817976 7.14004 0.954585 8.675C2.02145 10.2511 3.77797 11.1234 5.90026 11.1234H10.6897C11.4327 16.1364 15.8335 20 21.1374 20C26.6851 20 31.2459 15.777 31.6651 10.4271L29.9924 11.7112ZM5.90026 8.12466C4.81816 8.12466 3.98753 7.74279 3.49982 7.01649C3.03497 6.32763 2.92447 5.39168 3.22548 4.68785C3.51506 4.00648 4.08278 3.45988 4.78387 3.19033C5.10393 3.06678 5.43542 3.00314 5.76691 3.00314C6.12507 3.00314 6.47942 3.07801 6.81472 3.22402C8.67792 4.04392 9.67239 6.36882 10.1296 8.1284H5.90026V8.12466ZM17.0909 3.22402C17.731 2.94324 18.4512 2.93201 19.118 3.19033C19.8152 3.45988 20.383 4.00648 20.6763 4.68785C20.9774 5.39543 20.8669 6.33138 20.402 7.02024C19.9105 7.74653 19.0799 8.1284 18.0016 8.1284H13.7836C14.2066 6.48487 15.1363 4.08135 17.0909 3.22402Z" fill="#FEBA00"/>
</svg>
