<svg width="26" height="26" viewBox="0 0 26 26" fill="none" xmlns="http://www.w3.org/2000/svg">
<g clip-path="url(#clip0_432_1252)">
<path d="M12.9999 16.7146C15.3076 16.7146 17.1784 14.8438 17.1784 12.536C17.1784 10.2282 15.3076 8.35742 12.9999 8.35742C10.6921 8.35742 8.82129 10.2282 8.82129 12.536C8.82129 14.8438 10.6921 16.7146 12.9999 16.7146Z" stroke="#FEBA00" stroke-width="2" stroke-linecap="round" stroke-linejoin="round"/>
<path d="M20.4284 25.0715C19.7254 23.7074 18.6603 22.5632 17.3499 21.7644C16.0395 20.9655 14.5345 20.543 12.9999 20.543C11.4652 20.543 9.96019 20.9655 8.64982 21.7644C7.33946 22.5632 6.27435 23.7074 5.57129 25.0715" stroke="#FEBA00" stroke-width="2" stroke-linecap="round" stroke-linejoin="round"/>
<path d="M22.2859 19.6118C23.6038 17.8928 24.4144 15.8394 24.626 13.6837C24.8377 11.528 24.4419 9.35617 23.4835 7.41371C22.5251 5.47125 21.0423 3.83572 19.2028 2.69209C17.3633 1.54847 15.2405 0.942383 13.0744 0.942383C10.9084 0.942383 8.78559 1.54847 6.94607 2.69209C5.10656 3.83572 3.62375 5.47125 2.66534 7.41371C1.70694 9.35617 1.31118 11.528 1.52284 13.6837C1.73449 15.8394 2.54511 17.8928 3.86301 19.6118" stroke="#FEBA00" stroke-width="2" stroke-linecap="round" stroke-linejoin="round"/>
</g>
<defs>
<clipPath id="clip0_432_1252">
<rect width="26" height="26" fill="white"/>
</clipPath>
</defs>
</svg>
