<svg width="52" height="52" viewBox="0 0 52 52" fill="none" xmlns="http://www.w3.org/2000/svg">
<rect width="52" height="52" rx="10" fill="#FEBA00"/>
<g clip-path="url(#clip0_412_947)">
<path d="M37.6605 30.7145L30.714 37.661C30.4629 37.9118 30.1225 38.0526 29.7676 38.0526C29.4127 38.0526 29.0723 37.9118 28.8212 37.661L17.1962 26.036C17.1269 25.9697 17.0733 25.8889 17.0393 25.7993C17.0054 25.7097 16.9918 25.6136 16.9998 25.5181L18.0533 18.661C18.0656 18.504 18.1335 18.3566 18.2448 18.2453C18.3561 18.134 18.5035 18.0661 18.6605 18.0538L25.5176 17.0003C25.6131 16.9923 25.7092 17.0058 25.7988 17.0398C25.8884 17.0738 25.9693 17.1274 26.0355 17.1967L37.6605 28.8217C37.9113 29.0728 38.0522 29.4132 38.0522 29.7681C38.0522 30.123 37.9113 30.4634 37.6605 30.7145V30.7145Z" stroke="white" stroke-width="2" stroke-linecap="round" stroke-linejoin="round"/>
<path d="M21.1963 21.1963L14.9463 14.9463" stroke="white" stroke-width="2" stroke-linecap="round" stroke-linejoin="round"/>
</g>
<defs>
<clipPath id="clip0_412_947">
<rect width="25" height="25" fill="white" transform="translate(14 14)"/>
</clipPath>
</defs>
</svg>
