<svg width="26" height="26" viewBox="0 0 26 26" fill="none" xmlns="http://www.w3.org/2000/svg">
<g clip-path="url(#clip0_432_1241)">
<path d="M16.3295 24.1548C17.4641 24.8878 18.816 25.2073 20.1581 25.0594C21.5001 24.9116 22.7504 24.3054 23.6987 23.3429L24.5278 22.531C24.8912 22.1587 25.0947 21.6587 25.0947 21.138C25.0947 20.6173 24.8912 20.1172 24.5278 19.7449L21.009 16.2576C20.6403 15.8947 20.1441 15.6914 19.6272 15.6914C19.1104 15.6914 18.6142 15.8947 18.2455 16.2576V16.2576C17.8737 16.6216 17.3745 16.8254 16.8546 16.8254C16.3347 16.8254 15.8354 16.6216 15.4636 16.2576L9.93673 10.7222C9.75235 10.5402 9.60594 10.3233 9.50601 10.0842C9.40607 9.84502 9.35461 9.58835 9.35461 9.3291C9.35461 9.06985 9.40607 8.81318 9.50601 8.57402C9.60594 8.33487 9.75235 8.118 9.93673 7.93602V7.93602C10.299 7.56681 10.502 7.06984 10.502 6.55217C10.502 6.0345 10.299 5.53754 9.93673 5.16832L6.43635 1.66256C6.06459 1.29854 5.56533 1.09473 5.04541 1.09473C4.5255 1.09473 4.02624 1.29854 3.65447 1.66256L2.84386 2.49287C1.88282 3.44264 1.2776 4.69486 1.12997 6.03898C0.982346 7.38309 1.30132 8.73713 2.03325 9.87342C5.8469 15.5024 10.6993 20.3498 16.3295 24.1548V24.1548Z" stroke="#FEBA00" stroke-width="2" stroke-linecap="round" stroke-linejoin="round"/>
</g>
<defs>
<clipPath id="clip0_432_1241">
<rect width="26" height="26" fill="white"/>
</clipPath>
</defs>
</svg>
